<?xml version="1.0" encoding="utf-8"?>
<!-- Generator: Adobe Illustrator 17.1.0, SVG Export Plug-In . SVG Version: 6.00 Build 0)  -->
<!DOCTYPE svg PUBLIC "-//W3C//DTD SVG 1.1//EN" "http://www.w3.org/Graphics/SVG/1.1/DTD/svg11.dtd">
<svg version="1.1" id="Layer_1" xmlns="http://www.w3.org/2000/svg" xmlns:xlink="http://www.w3.org/1999/xlink" x="0px" y="0px"
	 viewBox="0 0 18.8 27.6" enable-background="new 0 0 18.8 27.6" xml:space="preserve">
<g>
	<defs>
		<rect id="SVGID_1_" y="0" width="18.8" height="27.6"/>
	</defs>
	<clipPath id="SVGID_2_">
		<use xlink:href="#SVGID_1_"  overflow="visible"/>
	</clipPath>
	<path clip-path="url(#SVGID_2_)" fill="#FFFFFF" d="M17.2,14.8c0-0.1,0.1-0.2,0.2-0.2c0,0,0,0,0,0c0.1-0.2,0.3-0.5,0.3-0.6
		c0.7-1.4,1.1-3,1.1-4.6c0-0.2,0-0.3,0-0.5c0-0.1,0-0.1,0-0.2l0-0.1c0,0,0-0.1,0-0.1c0-0.1,0-0.1,0-0.2l0-0.1c0-0.1,0-0.1,0-0.2
		c0,0,0-0.1,0-0.1l0-0.1c0-0.1,0-0.1,0-0.2c0-0.1,0-0.1,0-0.2l0-0.1c0-0.1,0-0.1,0-0.2c0-0.1,0-0.1-0.1-0.2l0-0.1c0,0,0-0.1,0-0.1
		c0-0.1,0-0.2-0.1-0.2l0-0.1c0,0,0-0.1,0-0.1c0-0.1-0.1-0.2-0.1-0.2l0-0.1c0,0,0-0.1,0-0.1C18,5.5,18,5.4,18,5.3l0-0.1
		c0,0,0-0.1,0-0.1c-0.1-0.1-0.1-0.2-0.2-0.3l0-0.1c-0.1-0.1-0.1-0.2-0.2-0.3l0-0.1c-0.1-0.1-0.1-0.2-0.2-0.3c0,0,0,0,0,0
		c-0.1-0.1-0.1-0.2-0.2-0.3c0,0,0,0,0,0c-0.1-0.1-0.2-0.2-0.2-0.3c0,0,0,0,0,0c-0.1-0.1-0.2-0.2-0.3-0.3c-0.1-0.1-0.2-0.2-0.3-0.3
		c0,0,0,0,0,0C14.5,0.9,12.1,0,9.4,0C3.9,0,0,3.9,0,9.4c0,1.7,0.4,3.4,1.3,4.9l0.1,0.3c0,0,0,0,0,0l0.2,0.4c0,0,0.1,0.1,0.1,0.1
		l6,10.1h0l1.4,2.3c0.1,0.1,0.2,0.2,0.4,0.2h0c0.1,0,0.3-0.1,0.4-0.2l1.4-2.3h0L17,15C17.1,14.9,17.1,14.9,17.2,14.8 M14.6,9.5
		c0,0.1,0,0.1,0,0.1l0,0.1c0,0.1,0,0.2,0,0.3c0,0.1,0,0.1,0,0.2l0,0.1c0,0.1,0,0.1,0,0.2c0,0.1-0.1,0.2-0.1,0.2l0,0.1
		c0,0,0,0.1,0,0.1c0,0.1-0.1,0.2-0.1,0.3l0,0.1c0,0,0,0.1,0,0.1c-0.1,0.1-0.1,0.2-0.2,0.3c0,0,0,0.1-0.1,0.1
		c-0.1,0.1-0.2,0.2-0.3,0.4c0,0,0,0,0,0c-0.1,0.1-0.2,0.2-0.3,0.4c-1,1-2.3,1.6-3.7,1.6c0,0,0,0-0.1,0c-2.9,0-5.3-2.4-5.3-5.3
		s2.4-5.3,5.3-5.3l0.1,0c1.4,0,2.7,0.6,3.7,1.6l0,0c0.1,0.1,0.2,0.2,0.3,0.3c0,0,0,0,0,0c0.1,0.1,0.2,0.2,0.3,0.4c0,0,0,0,0,0.1
		C13.9,6.2,14,6.3,14,6.4c0,0,0,0.1,0,0.1l0,0c0.1,0.1,0.1,0.2,0.2,0.3c0,0,0,0.1,0,0.1l0,0.1c0,0.1,0.1,0.2,0.1,0.2
		c0,0.1,0,0.1,0,0.2l0,0.1c0,0.1,0,0.1,0,0.2c0,0.1,0,0.2,0,0.3l0,0.1c0,0,0,0.1,0,0.1c0,0.2,0,0.4,0,0.5S14.6,9.3,14.6,9.5"/>
</g>
</svg>
