<?xml version="1.0" encoding="utf-8"?>
<!-- Generator: Adobe Illustrator 17.1.0, SVG Export Plug-In . SVG Version: 6.00 Build 0)  -->
<!DOCTYPE svg PUBLIC "-//W3C//DTD SVG 1.1//EN" "http://www.w3.org/Graphics/SVG/1.1/DTD/svg11.dtd">
<svg version="1.1" id="Layer_1" xmlns="http://www.w3.org/2000/svg" xmlns:xlink="http://www.w3.org/1999/xlink" x="0px" y="0px"
	 viewBox="0 0 18.7 18.7" enable-background="new 0 0 18.7 18.7" xml:space="preserve">
<g>
	<defs>
		<rect id="SVGID_1_" y="0" width="18.7" height="18.7"/>
	</defs>
	<clipPath id="SVGID_2_">
		<use xlink:href="#SVGID_1_"  overflow="visible"/>
	</clipPath>
	<path clip-path="url(#SVGID_2_)" fill="#FFFFFF" d="M7.8,10.9l-0.2,2.4c0.2,0,0.4-0.1,0.5-0.2L9.2,12l2.4,1.8
		c0.4,0.2,0.8,0.1,0.9-0.4l1.6-7.4v0c0.1-0.7-0.2-0.9-0.7-0.8L4.1,8.7C3.5,8.9,3.5,9.3,4,9.5l2.4,0.7l5.5-3.5
		c0.3-0.2,0.5-0.1,0.3,0.1L7.8,10.9z"/>
	<path clip-path="url(#SVGID_2_)" fill="#FFFFFF" d="M9.4,18.7C4.2,18.7,0,14.5,0,9.4S4.2,0,9.4,0s9.4,4.2,9.4,9.4
		S14.5,18.7,9.4,18.7 M9.4,0.8c-4.8,0-8.6,3.9-8.6,8.6c0,4.8,3.9,8.6,8.6,8.6S18,14.1,18,9.4C18,4.6,14.1,0.8,9.4,0.8"/>
</g>
</svg>
