<?xml version="1.0" encoding="utf-8"?>
<!-- Generator: Adobe Illustrator 17.1.0, SVG Export Plug-In . SVG Version: 6.00 Build 0)  -->
<!DOCTYPE svg PUBLIC "-//W3C//DTD SVG 1.1//EN" "http://www.w3.org/Graphics/SVG/1.1/DTD/svg11.dtd">
<svg version="1.1" id="Layer_1" xmlns="http://www.w3.org/2000/svg" xmlns:xlink="http://www.w3.org/1999/xlink" x="0px" y="0px"
	 viewBox="0 0 27.5 18.2" enable-background="new 0 0 27.5 18.2" xml:space="preserve">
<g>
	<defs>
		<rect id="SVGID_1_" y="0" width="27.5" height="18.2"/>
	</defs>
	<clipPath id="SVGID_2_">
		<use xlink:href="#SVGID_1_"  overflow="visible"/>
	</clipPath>
	<path clip-path="url(#SVGID_2_)" fill="#FFFFFF" d="M0,16.7l11.8-7L0,2.7v13.7C0,16.5,0,16.6,0,16.7"/>
	<path clip-path="url(#SVGID_2_)" fill="#FFFFFF" d="M14,10.9c0,0-0.1,0-0.1,0l-1.2-0.7L0.3,17.4c0.3,0.5,0.9,0.8,1.5,0.8h23.9
		c0.7,0,1.3-0.4,1.6-1l-12.1-7.1L14,10.9z"/>
	<path clip-path="url(#SVGID_2_)" fill="#FFFFFF" d="M27.5,16.4V2.9L16,9.7L27.5,16.4C27.5,16.5,27.5,16.4,27.5,16.4"/>
	<path clip-path="url(#SVGID_2_)" fill="#FFFFFF" d="M25.7,0H1.8C0.8,0,0,0.8,0,1.8L13.9,10l13.6-8V1.8C27.5,0.8,26.7,0,25.7,0"/>
</g>
</svg>
