<?xml version="1.0" encoding="utf-8"?>
<!-- Generator: Adobe Illustrator 17.1.0, SVG Export Plug-In . SVG Version: 6.00 Build 0)  -->
<!DOCTYPE svg PUBLIC "-//W3C//DTD SVG 1.1//EN" "http://www.w3.org/Graphics/SVG/1.1/DTD/svg11.dtd">
<svg version="1.1" id="Layer_1" xmlns="http://www.w3.org/2000/svg" xmlns:xlink="http://www.w3.org/1999/xlink" x="0px" y="0px"
	 viewBox="0 0 19.2 19.2" enable-background="new 0 0 19.2 19.2" xml:space="preserve">
<g>
	<defs>
		<rect id="SVGID_1_" y="0" width="19.2" height="19.2"/>
	</defs>
	<clipPath id="SVGID_2_">
		<use xlink:href="#SVGID_1_"  overflow="visible"/>
	</clipPath>
	<path clip-path="url(#SVGID_2_)" fill="#FFFFFF" d="M0,19.2l1.4-5.1c-0.8-1.5-1.2-3-1.2-4.7C0.2,4.3,4.4,0,9.7,0
		c5.3,0,9.6,4.2,9.6,9.5c0,6.7-7.2,12.1-14.1,8.4L0,19.2z M5.3,17l0.1,0.1c1.4,0.8,2.9,1.2,4.3,1.2c4.8,0,8.8-4.1,8.8-8.9
		c0-4.8-4-8.7-8.8-8.7c-4.8,0-8.8,3.9-8.8,8.7c0,1.6,0.4,3.1,1.2,4.5l0.1,0.1l-1.1,4.1L5.3,17z"/>
	<path clip-path="url(#SVGID_2_)" fill="#FFFFFF" d="M7.2,5.2l-0.6,0c-0.2,0-0.4,0.1-0.5,0.2C5.8,5.7,5.4,6.1,5.2,6.8
		C5,7.7,5.4,8.8,6.2,10c0.8,1.1,2.4,3,5.2,3.8c0.9,0.3,1.6,0.1,2.1-0.3c0.4-0.3,0.7-0.7,0.8-1.2l0.1-0.4c0-0.1,0-0.3-0.2-0.3l-2-0.9
		c-0.1-0.1-0.3,0-0.4,0.1l-0.8,1c-0.1,0.1-0.2,0.1-0.3,0.1c-0.5-0.2-2.3-0.9-3.3-2.8c0-0.1,0-0.2,0-0.3l0.8-0.9
		c0.1-0.1,0.1-0.2,0.1-0.3L7.5,5.4C7.5,5.3,7.4,5.2,7.2,5.2"/>
</g>
</svg>
