<?xml version="1.0" encoding="utf-8"?>
<!-- Generator: Adobe Illustrator 17.1.0, SVG Export Plug-In . SVG Version: 6.00 Build 0)  -->
<!DOCTYPE svg PUBLIC "-//W3C//DTD SVG 1.1//EN" "http://www.w3.org/Graphics/SVG/1.1/DTD/svg11.dtd">
<svg version="1.1" id="Layer_1" xmlns="http://www.w3.org/2000/svg" xmlns:xlink="http://www.w3.org/1999/xlink" x="0px" y="0px"
	 viewBox="0 0 40 40" enable-background="new 0 0 40 40" xml:space="preserve">
<g>
	<defs>
		<rect id="SVGID_1_" width="40" height="40"/>
	</defs>
	<clipPath id="SVGID_2_">
		<use xlink:href="#SVGID_1_"  overflow="visible"/>
	</clipPath>
	<path clip-path="url(#SVGID_2_)" fill="#FFA82D" d="M13.9,20H20v4c0,0.6,0.4,1,1,1s1-0.4,1-1v-4h4v5c0,0.6,0.4,1,1,1s1-0.4,1-1v-6
		c0-0.6-0.4-1-1-1H13.9c-0.5-3.4-3.4-6-6.9-6c-3.9,0-7,3.1-7,7s3.1,7,7,7C10.5,26,13.4,23.4,13.9,20 M2,19c0-2.8,2.2-5,5-5
		s5,2.2,5,5s-2.2,5-5,5S2,21.8,2,19"/>
	<path clip-path="url(#SVGID_2_)" fill="#FFA82D" d="M20,0C14.4,0,9.3,2.2,5.4,6.3c-0.4,0.4-0.4,1,0,1.4c0.4,0.4,1,0.4,1.4,0
		C10.3,4,15,2,20,2c9.9,0,18,8.1,18,18s-8.1,18-18,18c-5.8,0-11.3-2.8-14.7-7.6C5,30,4.4,29.9,3.9,30.2c-0.4,0.3-0.6,0.9-0.2,1.4
		C7.5,36.9,13.6,40,20,40c11,0,20-9,20-20S31,0,20,0"/>
</g>
</svg>
