<?xml version="1.0" encoding="utf-8"?>
<!-- Generator: Adobe Illustrator 17.1.0, SVG Export Plug-In . SVG Version: 6.00 Build 0)  -->
<!DOCTYPE svg PUBLIC "-//W3C//DTD SVG 1.1//EN" "http://www.w3.org/Graphics/SVG/1.1/DTD/svg11.dtd">
<svg version="1.1" id="Layer_1" xmlns="http://www.w3.org/2000/svg" xmlns:xlink="http://www.w3.org/1999/xlink" x="0px" y="0px"
	 viewBox="0 0 40 36" enable-background="new 0 0 40 36" xml:space="preserve">
<g>
	<defs>
		<rect id="SVGID_1_" width="40" height="36"/>
	</defs>
	<clipPath id="SVGID_2_">
		<use xlink:href="#SVGID_1_"  overflow="visible"/>
	</clipPath>
	<path clip-path="url(#SVGID_2_)" fill="#FFA82D" d="M1,8c0.6,0,1-0.4,1-1V2h5c0.6,0,1-0.4,1-1c0-0.6-0.4-1-1-1H1C0.4,0,0,0.4,0,1v6
		C0,7.6,0.4,8,1,8"/>
	<path clip-path="url(#SVGID_2_)" fill="#FFA82D" d="M7,34H2v-5c0-0.6-0.4-1-1-1s-1,0.4-1,1v6c0,0.6,0.4,1,1,1h6c0.6,0,1-0.4,1-1
		S7.6,34,7,34"/>
	<path clip-path="url(#SVGID_2_)" fill="#FFA82D" d="M39,0h-6c-0.6,0-1,0.4-1,1c0,0.6,0.4,1,1,1h5v5c0,0.6,0.4,1,1,1
		c0.6,0,1-0.4,1-1V1C40,0.4,39.6,0,39,0"/>
	<path clip-path="url(#SVGID_2_)" fill="#FFA82D" d="M39,28c-0.6,0-1,0.4-1,1v5h-5c-0.6,0-1,0.4-1,1s0.4,1,1,1h6c0.6,0,1-0.4,1-1v-6
		C40,28.4,39.6,28,39,28"/>
	<path clip-path="url(#SVGID_2_)" fill="#FFA82D" d="M38,18c0-1.7-7.2-10-18-10C9.2,8,2,16.3,2,18s7.2,10,18,10
		C30.8,28,38,19.7,38,18 M28,18c0,4.4-3.6,8-8,8c-4.4,0-8-3.6-8-8s3.6-8,8-8C24.4,10,28,13.6,28,18 M4.1,18c0.6-1.1,3.6-4.5,8.4-6.5
		c-1.5,1.8-2.5,4-2.5,6.5s0.9,4.7,2.5,6.5C7.6,22.5,4.6,19.1,4.1,18 M27.5,24.5c1.5-1.8,2.5-4,2.5-6.5s-0.9-4.7-2.5-6.5
		c4.8,2,7.8,5.4,8.4,6.5C35.4,19.1,32.4,22.5,27.5,24.5"/>
	<path clip-path="url(#SVGID_2_)" fill="#FFA82D" d="M20,24c3.3,0,6-2.7,6-6s-2.7-6-6-6s-6,2.7-6,6S16.7,24,20,24 M20,14
		c2.2,0,4,1.8,4,4s-1.8,4-4,4s-4-1.8-4-4S17.8,14,20,14"/>
</g>
</svg>
