<?xml version="1.0" encoding="utf-8"?>
<!-- Generator: Adobe Illustrator 17.1.0, SVG Export Plug-In . SVG Version: 6.00 Build 0)  -->
<!DOCTYPE svg PUBLIC "-//W3C//DTD SVG 1.1//EN" "http://www.w3.org/Graphics/SVG/1.1/DTD/svg11.dtd">
<svg version="1.1" id="Layer_1" xmlns="http://www.w3.org/2000/svg" xmlns:xlink="http://www.w3.org/1999/xlink" x="0px" y="0px"
	 viewBox="0 0 36 40" enable-background="new 0 0 36 40" xml:space="preserve">
<g>
	<defs>
		<rect id="SVGID_1_" width="36" height="40"/>
	</defs>
	<clipPath id="SVGID_2_">
		<use xlink:href="#SVGID_1_"  overflow="visible"/>
	</clipPath>
	<path clip-path="url(#SVGID_2_)" fill="#FFA82D" d="M1,6c0.6,0,1-0.4,1-1V2h3c0.6,0,1-0.4,1-1c0-0.6-0.4-1-1-1H1C0.4,0,0,0.4,0,1v4
		C0,5.6,0.4,6,1,6"/>
	<path clip-path="url(#SVGID_2_)" fill="#FFA82D" d="M35,0h-4c-0.6,0-1,0.4-1,1c0,0.6,0.4,1,1,1h3v3c0,0.6,0.4,1,1,1
		c0.6,0,1-0.4,1-1V1C36,0.4,35.6,0,35,0"/>
	<path clip-path="url(#SVGID_2_)" fill="#FFA82D" d="M1,24h4c0.6,0,1-0.4,1-1c0-0.6-0.4-1-1-1H2v-3c0-0.6-0.4-1-1-1s-1,0.4-1,1v4
		C0,23.6,0.4,24,1,24"/>
	<path clip-path="url(#SVGID_2_)" fill="#FFA82D" d="M35,18c-0.6,0-1,0.4-1,1v3h-3c-0.6,0-1,0.4-1,1c0,0.6,0.4,1,1,1h4
		c0.6,0,1-0.4,1-1v-4C36,18.4,35.6,18,35,18"/>
	<path clip-path="url(#SVGID_2_)" fill="#FFA82D" d="M27.5,28.1C24.4,27.2,23,26.6,23,25v-2.1c0-0.2,0.2-0.4,0.3-0.5
		c2.9-2.1,4.7-7,4.7-10.4c0-5.5-4.5-10-10-10S8,6.5,8,12c0,3.4,1.8,8.3,4.7,10.4c0.1,0.1,0.3,0.2,0.3,0.5V25c0,1.6-1.4,2.2-4.5,3.1
		C4.9,29.2,0,30.6,0,37v2c0,0.6,0.4,1,1,1h34c0.6,0,1-0.4,1-1v-2C36,30.6,31.1,29.2,27.5,28.1 M34,38H2v-1c0-4.9,3.4-5.9,7.1-7
		c2.9-0.9,5.9-1.7,5.9-5v-2.1c0-0.8-0.4-1.6-1.1-2.1C11.6,19.1,10,14.9,10,12c0-4.4,3.6-8,8-8s8,3.6,8,8c0,2.9-1.6,7.1-3.9,8.8
		c-0.7,0.5-1.1,1.3-1.1,2.1V25c0,3.3,3,4.2,5.9,5c3.6,1.1,7.1,2.1,7.1,7V38z"/>
</g>
</svg>
