<svg version="1.1" id="Layer_1" xmlns="http://www.w3.org/2000/svg" xmlns:xlink="http://www.w3.org/1999/xlink" x="0px" y="0px"
	 viewBox="0 0 10.4 17.3" width="12" height="20" enable-background="new 0 0 10.4 17.3" xml:space="preserve">
<g>
	<defs>
		<rect id="SVGID_1_" y="0" width="10.4" height="17.3"/>
	</defs>
	<clipPath id="SVGID_2_">
		<use xlink:href="#SVGID_1_"  overflow="visible"/>
	</clipPath>
	<path clip-path="url(#SVGID_2_)" fill-rule="evenodd" clip-rule="evenodd" fill="#FFFFFF" d="M10.2,9.3C10,8.8,9.3,8.4,8.4,9.1
		c-1.2,1-3.2,1-3.2,1s-2,0-3.2-1C1.1,8.4,0.4,8.8,0.2,9.3c-0.4,0.9,0.1,1.3,1.2,2c0.9,0.6,2.2,0.8,3.1,0.9l-0.7,0.7
		c-1,1-1.9,1.9-2.6,2.6c-0.4,0.4-0.4,1,0,1.4L1.2,17c0.2,0.2,0.5,0.3,0.7,0.3h0c0.3,0,0.5-0.1,0.7-0.3l2.6-2.6c1,1,1.9,1.9,2.6,2.6
		c0.4,0.4,1,0.4,1.4,0l0.1-0.1c0.4-0.4,0.4-1,0-1.4l-2.6-2.6L6,12.2c0.8-0.1,2.1-0.3,3-0.9C10.2,10.6,10.7,10.1,10.2,9.3 M5.2,2.2
		c1.2,0,2.1,1,2.1,2.1s-1,2.1-2.1,2.1S3,5.6,3,4.4S4,2.2,5.2,2.2 M5.2,8.7c2.4,0,4.4-2,4.4-4.4S7.6,0,5.2,0S0.8,2,0.8,4.4
		S2.8,8.7,5.2,8.7"/>
</g>
</svg>
