<svg version="1.1" id="Layer_1" xmlns="http://www.w3.org/2000/svg" xmlns:xlink="http://www.w3.org/1999/xlink" x="0px" y="0px"
	 viewBox="0 0 16 9.5" width="18" height="11" enable-background="new 0 0 16 9.5" xml:space="preserve">
<g>
	<defs>
		<rect id="SVGID_1_" y="0" width="16" height="9.5"/>
	</defs>
	<clipPath id="SVGID_2_">
		<use xlink:href="#SVGID_1_"  overflow="visible"/>
	</clipPath>
	<path clip-path="url(#SVGID_2_)" fill-rule="evenodd" clip-rule="evenodd" fill="#FFFFFF" d="M15.6,0.6c0.1-0.4,0-0.6-0.5-0.6h-1.7
		c-0.4,0-0.6,0.2-0.8,0.5c0,0-0.9,2.2-2.1,3.6C10,4.5,9.8,4.6,9.6,4.6c-0.1,0-0.3-0.1-0.3-0.5V0.6C9.3,0.2,9.2,0,8.8,0H6.1
		C5.8,0,5.6,0.2,5.6,0.4c0,0.4,0.6,0.5,0.7,1.7v2.6c0,0.6-0.1,0.7-0.3,0.7c-0.6,0-2-2.2-2.9-4.7C3,0.2,2.8,0,2.3,0H0.6
		C0.1,0,0,0.2,0,0.5C0,1,0.6,3.3,2.8,6.3c1.4,2.1,3.5,3.2,5.3,3.2c1.1,0,1.2-0.3,1.2-0.7V7.2c0-0.5,0.1-0.6,0.5-0.6
		c0.3,0,0.7,0.1,1.7,1.1c1.2,1.2,1.4,1.7,2,1.7h1.7c0.5,0,0.7-0.3,0.6-0.7c-0.2-0.5-0.7-1.2-1.5-2c-0.4-0.5-1-1-1.2-1.3
		c-0.3-0.3-0.2-0.5,0-0.8C13.3,4.7,15.4,1.7,15.6,0.6z"/>
</g>
</svg>
