<svg version="1.1" id="Layer_1" xmlns="http://www.w3.org/2000/svg" xmlns:xlink="http://www.w3.org/1999/xlink" x="0px" y="0px"
	 viewBox="0 0 13.5 10.9" width="16" height="12" enable-background="new 0 0 13.5 10.9" xml:space="preserve">
<g>
	<defs>
		<rect id="SVGID_1_" y="0" width="13.5" height="10.9"/>
	</defs>
	<clipPath id="SVGID_2_">
		<use xlink:href="#SVGID_1_"  overflow="visible"/>
	</clipPath>
	<path clip-path="url(#SVGID_2_)" fill="#FFFFFF" d="M13.5,1.3c-0.5,0.2-1,0.4-1.6,0.4c0.6-0.3,1-0.9,1.2-1.5
		c-0.5,0.3-1.1,0.5-1.8,0.7C10.8,0.3,10.1,0,9.3,0C7.8,0,6.6,1.2,6.6,2.8c0,0.2,0,0.4,0.1,0.6C4.3,3.3,2.3,2.2,0.9,0.5
		C0.7,0.9,0.6,1.4,0.6,1.9c0,1,0.5,1.8,1.2,2.3c-0.5,0-0.9-0.1-1.3-0.3c0,0,0,0,0,0c0,1.3,1,2.5,2.2,2.7C2.5,6.7,2.3,6.7,2,6.7
		c-0.2,0-0.4,0-0.5-0.1c0.4,1.1,1.4,1.9,2.6,1.9C3.1,9.3,2,9.7,0.7,9.7c-0.2,0-0.4,0-0.7,0c1.2,0.8,2.7,1.2,4.2,1.2
		c5.1,0,7.9-4.2,7.9-7.9c0-0.1,0-0.2,0-0.4C12.6,2.3,13.1,1.8,13.5,1.3"/>
</g>
</svg>
