<svg version="1.1" id="Layer_1" xmlns="http://www.w3.org/2000/svg" xmlns:xlink="http://www.w3.org/1999/xlink" x="0px" y="0px"
	 viewBox="0 0 12.5 12.5" width="14" height="14" enable-background="new 0 0 12.5 12.5" xml:space="preserve">
<g>
	<defs>
		<rect id="SVGID_1_" y="0" width="12.5" height="12.5"/>
	</defs>
	<clipPath id="SVGID_2_">
		<use xlink:href="#SVGID_1_"  overflow="visible"/>
	</clipPath>
	<path clip-path="url(#SVGID_2_)" fill="#FFFFFF" d="M6.2,1.1c1.7,0,1.9,0,2.5,0c0.6,0,0.9,0.1,1.2,0.2c0.3,0.1,0.5,0.2,0.7,0.5
		c0.2,0.2,0.4,0.4,0.5,0.7c0.1,0.2,0.2,0.6,0.2,1.2c0,0.7,0,0.9,0,2.5c0,1.7,0,1.9,0,2.5c0,0.6-0.1,0.9-0.2,1.2
		c-0.1,0.3-0.2,0.5-0.5,0.7c-0.2,0.2-0.4,0.4-0.7,0.5c-0.2,0.1-0.6,0.2-1.2,0.2c-0.7,0-0.9,0-2.5,0s-1.9,0-2.5,0
		c-0.6,0-0.9-0.1-1.2-0.2c-0.3-0.1-0.5-0.2-0.7-0.5c-0.2-0.2-0.4-0.4-0.5-0.7C1.3,9.7,1.2,9.4,1.2,8.8c0-0.7,0-0.9,0-2.5
		c0-1.7,0-1.9,0-2.5c0-0.6,0.1-0.9,0.2-1.2c0.1-0.3,0.2-0.5,0.5-0.7c0.2-0.2,0.4-0.4,0.7-0.5c0.2-0.1,0.5-0.2,1.2-0.2
		C4.4,1.1,4.6,1.1,6.2,1.1 M6.2,0C4.5,0,4.3,0,3.7,0C3,0.1,2.5,0.2,2.2,0.3C1.7,0.5,1.4,0.7,1,1C0.7,1.4,0.5,1.7,0.3,2.2
		C0.2,2.5,0.1,3,0,3.7c0,0.7,0,0.9,0,2.6s0,1.9,0,2.6c0,0.7,0.1,1.1,0.3,1.5c0.2,0.4,0.4,0.8,0.7,1.1c0.3,0.3,0.7,0.6,1.1,0.7
		c0.4,0.2,0.9,0.3,1.5,0.3c0.7,0,0.9,0,2.6,0s1.9,0,2.6,0c0.7,0,1.1-0.1,1.5-0.3c0.4-0.2,0.8-0.4,1.1-0.7c0.3-0.3,0.6-0.7,0.7-1.1
		c0.2-0.4,0.3-0.8,0.3-1.5c0-0.7,0-0.9,0-2.6s0-1.9,0-2.6c0-0.7-0.1-1.1-0.3-1.5C12,1.7,11.8,1.4,11.4,1c-0.3-0.3-0.7-0.6-1.1-0.7
		C9.9,0.2,9.5,0.1,8.8,0C8.1,0,7.9,0,6.2,0"/>
	<path clip-path="url(#SVGID_2_)" fill="#FFFFFF" d="M6.2,3C4.5,3,3,4.5,3,6.2s1.4,3.2,3.2,3.2S9.4,8,9.4,6.2S8,3,6.2,3 M6.2,8.3
		c-1.1,0-2.1-0.9-2.1-2.1s0.9-2.1,2.1-2.1s2.1,0.9,2.1,2.1S7.4,8.3,6.2,8.3"/>
	<path clip-path="url(#SVGID_2_)" fill="#FFFFFF" d="M10.3,2.9c0,0.4-0.3,0.7-0.7,0.7S8.8,3.3,8.8,2.9c0-0.4,0.3-0.7,0.7-0.7
		S10.3,2.5,10.3,2.9"/>
</g>
</svg>
