<svg version="1.1" id="Layer_1" xmlns="http://www.w3.org/2000/svg" xmlns:xlink="http://www.w3.org/1999/xlink" x="0px" y="0px"
	 viewBox="0 0 13.3 9.3"  width="16" height="11" enable-background="new 0 0 13.3 9.3" xml:space="preserve">
<g>
	<defs>
		<rect id="SVGID_1_" y="0" width="13.3" height="9.3"/>
	</defs>
	<clipPath id="SVGID_2_">
		<use xlink:href="#SVGID_1_"  overflow="visible"/>
	</clipPath>
	<path clip-path="url(#SVGID_2_)" fill="#FFFFFF" d="M13,1.5c-0.2-0.6-0.6-1-1.2-1.2C10.8,0,6.6,0,6.6,0S2.5,0,1.4,0.3
		c-0.6,0.2-1,0.6-1.2,1.2C0,2.5,0,4.7,0,4.7s0,2.2,0.3,3.2c0.2,0.6,0.6,1,1.2,1.2c1,0.3,5.2,0.3,5.2,0.3s4.1,0,5.2-0.3
		c0.6-0.2,1-0.6,1.2-1.2c0.3-1,0.3-3.2,0.3-3.2S13.3,2.5,13,1.5 M5.3,6.6V2.7l3.5,2L5.3,6.6z"/>
</g>
</svg>
