<?xml version="1.0" encoding="utf-8"?>
<!-- Generator: Adobe Illustrator 17.1.0, SVG Export Plug-In . SVG Version: 6.00 Build 0)  -->
<!DOCTYPE svg PUBLIC "-//W3C//DTD SVG 1.1//EN" "http://www.w3.org/Graphics/SVG/1.1/DTD/svg11.dtd">
<svg version="1.1" id="Layer_1" xmlns="http://www.w3.org/2000/svg" xmlns:xlink="http://www.w3.org/1999/xlink" x="0px" y="0px"
	 viewBox="0 0 21.3 21.3" enable-background="new 0 0 21.3 21.3" xml:space="preserve">
<g>
	<defs>
		<rect id="SVGID_1_" y="0" width="21.3" height="21.3"/>
	</defs>
	<clipPath id="SVGID_2_">
		<use xlink:href="#SVGID_1_"  overflow="visible"/>
	</clipPath>
	<path clip-path="url(#SVGID_2_)" fill="#FFFFFF" d="M0,10.7c0,5.9,4.8,10.7,10.7,10.7s10.7-4.8,10.7-10.7C21.3,4.8,16.5,0,10.7,0
		S0,4.8,0,10.7 M18.9,10.7c0,4.5-3.7,8.2-8.2,8.2s-8.2-3.7-8.2-8.2c0-4.5,3.7-8.2,8.2-8.2S18.9,6.1,18.9,10.7"/>
	<path clip-path="url(#SVGID_2_)" fill="#FFFFFF" d="M10.3,4.4v6.2c0,0.2,0.1,0.3,0.3,0.3c0.2,0,0.3-0.1,0.3-0.3V4.4
		c0-0.2-0.1-0.3-0.3-0.3C10.4,4,10.3,4.2,10.3,4.4"/>
	<path clip-path="url(#SVGID_2_)" fill="#FFFFFF" d="M4.8,13c-0.2,0.1-0.3,0.2-0.3,0.2c0,0,0.2,0,0.3-0.1l5.8-2.4
		c0.2-0.1,0.3-0.2,0.3-0.2c0,0-0.2,0-0.3,0.1L4.8,13z"/>
	<path clip-path="url(#SVGID_2_)" fill="#FFFFFF" d="M10.8,10.2c-0.3,0-0.5,0.2-0.5,0.5c0,0.3,0.2,0.5,0.5,0.5h4.1
		c0.3,0,0.5-0.2,0.5-0.5c0-0.3-0.2-0.5-0.5-0.5H10.8z"/>
	<path clip-path="url(#SVGID_2_)" fill="#FFFFFF" d="M9.9,10.6c0,0.5,0.4,0.8,0.8,0.8c0.5,0,0.8-0.4,0.8-0.8c0-0.5-0.4-0.8-0.8-0.8
		C10.3,9.8,9.9,10.2,9.9,10.6"/>
</g>
</svg>
