<?xml version="1.0" encoding="utf-8"?>
<!-- Generator: Adobe Illustrator 17.1.0, SVG Export Plug-In . SVG Version: 6.00 Build 0)  -->
<!DOCTYPE svg PUBLIC "-//W3C//DTD SVG 1.1//EN" "http://www.w3.org/Graphics/SVG/1.1/DTD/svg11.dtd">
<svg version="1.1" id="Layer_1" xmlns="http://www.w3.org/2000/svg" xmlns:xlink="http://www.w3.org/1999/xlink" x="0px" y="0px"
	 viewBox="0 0 20.8 20.8" enable-background="new 0 0 20.8 20.8" xml:space="preserve">
<g>
	<defs>
		<rect id="SVGID_1_" y="0" width="20.8" height="20.8"/>
	</defs>
	<clipPath id="SVGID_2_">
		<use xlink:href="#SVGID_1_"  overflow="visible"/>
	</clipPath>
	<path clip-path="url(#SVGID_2_)" fill="#FFFFFF" d="M10.4,0C4.7,0,0,4.7,0,10.4c0,5.7,4.7,10.4,10.4,10.4s10.4-4.7,10.4-10.4
		C20.8,4.7,16.1,0,10.4,0 M16.1,6.2L16.1,6.2l-1.9,9c-0.1,0.6-0.5,0.8-1.1,0.5l-2.9-2.1l-1.4,1.3c-0.2,0.2-0.3,0.3-0.6,0.3l0.2-3
		l5.4-4.9c0.2-0.2-0.1-0.3-0.4-0.1l-6.7,4.2l-2.9-0.9c-0.6-0.2-0.6-0.6,0.1-0.9l11.3-4.3C15.8,5.1,16.3,5.4,16.1,6.2"/>
</g>
</svg>
