<?xml version="1.0" encoding="utf-8"?>
<!-- Generator: Adobe Illustrator 17.1.0, SVG Export Plug-In . SVG Version: 6.00 Build 0)  -->
<!DOCTYPE svg PUBLIC "-//W3C//DTD SVG 1.1//EN" "http://www.w3.org/Graphics/SVG/1.1/DTD/svg11.dtd">
<svg version="1.1" id="Layer_1" xmlns="http://www.w3.org/2000/svg" xmlns:xlink="http://www.w3.org/1999/xlink" x="0px" y="0px"
	 viewBox="0 0 15.4 25.2" enable-background="new 0 0 15.4 25.2" xml:space="preserve">
<g>
	<defs>
		<rect id="SVGID_1_" y="0" width="15.4" height="25.2"/>
	</defs>
	<clipPath id="SVGID_2_">
		<use xlink:href="#SVGID_1_"  overflow="visible"/>
	</clipPath>
	<path clip-path="url(#SVGID_2_)" fill="#FFFFFF" d="M12.9,0H2.5C1.1,0,0,1.1,0,2.5v20.3c0,1.4,1.1,2.5,2.5,2.5h10.5
		c1.4,0,2.5-1.1,2.5-2.5V2.5C15.4,1.1,14.3,0,12.9,0 M6.3,1.1H9c0.2,0,0.4,0.2,0.4,0.4c0,0.2-0.2,0.4-0.4,0.4H6.3
		C6.1,1.8,6,1.7,6,1.5C6,1.3,6.1,1.1,6.3,1.1 M7.9,24.3c-0.9,0.2-1.6-0.6-1.4-1.4c0.1-0.5,0.5-0.9,1-1c0.9-0.2,1.6,0.6,1.4,1.4
		C8.8,23.8,8.4,24.2,7.9,24.3 M12.1,21.3H3.2c-1,0-1.8-0.8-1.8-1.8V4.6c0-1,0.8-1.8,1.8-1.8h8.9c1,0,1.8,0.8,1.8,1.8v14.9
		C13.9,20.5,13.1,21.3,12.1,21.3"/>
</g>
</svg>
