<?xml version="1.0" encoding="utf-8"?>
<!-- Generator: Adobe Illustrator 17.1.0, SVG Export Plug-In . SVG Version: 6.00 Build 0)  -->
<!DOCTYPE svg PUBLIC "-//W3C//DTD SVG 1.1//EN" "http://www.w3.org/Graphics/SVG/1.1/DTD/svg11.dtd">
<svg version="1.1" id="Layer_1" xmlns="http://www.w3.org/2000/svg" xmlns:xlink="http://www.w3.org/1999/xlink" x="0px" y="0px"
	 viewBox="0 0 178.2 39" enable-background="new 0 0 178.2 39" xml:space="preserve">
<g>
	<defs>
		<path id="SVGID_1_" d="M90.8,24c-0.3,0-0.6-0.1-0.8-0.2c-0.2-0.1-0.4-0.2-0.6-0.3c-0.1-0.1-0.3-0.2-0.4-0.2
			c-0.1,0-0.1-0.1-0.1-0.2v-5.7c0-0.4,0-0.8,0-1.2c0-0.3,0-0.6,0-0.9c0,0,0-0.1,0-0.1c0.2-0.2,0.4-0.4,0.6-0.5
			c0.2-0.2,0.5-0.3,0.7-0.4c0.3-0.1,0.5-0.2,0.8-0.3c0.3-0.1,0.5-0.1,0.8-0.1c0.7,0,1.2,0.1,1.7,0.4c0.5,0.3,0.8,0.7,1.1,1.2
			s0.5,1.1,0.6,1.8s0.2,1.4,0.2,2.2c0,0.7-0.1,1.3-0.3,1.9c-0.2,0.6-0.4,1-0.7,1.4c-0.3,0.4-0.7,0.7-1.2,0.9c-0.5,0.2-1,0.3-1.6,0.3
			C91.4,24,91.1,24,90.8,24 M90.5,13.3c-0.4,0.1-0.8,0.3-1.1,0.5c-0.1,0-0.2,0-0.2,0c-0.1,0-0.1-0.1-0.1-0.2l0-0.1
			c0-0.1,0.1-0.2,0.1-0.3l0-0.1h-2.6l0,0.1c0,0.1,0.1,0.3,0.1,0.5c0,0.2,0.1,0.5,0.1,0.9c0,0.3,0,0.7,0.1,1.2c0,0.5,0,1,0,1.6V26
			c0,0.6,0,1.2,0,1.6c0,0.5,0,0.9-0.1,1.2c0,0.3-0.1,0.6-0.1,0.9c0,0.2-0.1,0.4-0.1,0.6l0,0.1h2.6l0-0.1c0-0.1-0.1-0.3-0.1-0.6
			c0-0.2-0.1-0.5-0.1-0.9c0-0.3-0.1-0.8-0.1-1.2c0-0.5,0-1,0-1.6v-1.3c0-0.1,0-0.1,0.1-0.2c0.1,0,0.1,0,0.2,0
			c0.3,0.1,0.7,0.2,1.1,0.3c0.5,0.1,1,0.1,1.6,0.1c1,0,1.8-0.2,2.6-0.5c0.7-0.3,1.4-0.8,1.9-1.3c0.5-0.5,0.9-1.2,1.2-1.9
			c0.3-0.7,0.4-1.4,0.4-2.2c0-0.9-0.1-1.7-0.4-2.5c-0.3-0.7-0.6-1.4-1.1-1.9c-0.5-0.5-1.1-0.9-1.7-1.2c-0.7-0.3-1.4-0.4-2.2-0.4
			C91.6,13,91,13.1,90.5,13.3"/>
	</defs>
	<clipPath id="SVGID_2_">
		<use xlink:href="#SVGID_1_"  overflow="visible"/>
	</clipPath>
	
		<linearGradient id="SVGID_3_" gradientUnits="userSpaceOnUse" x1="0" y1="39.0379" x2="1" y2="39.0379" gradientTransform="matrix(146.3437 14.8465 14.8465 -146.3437 -543.4351 5728.9404)">
		<stop  offset="0" style="stop-color:#777776"/>
		<stop  offset="1.984130e-003" style="stop-color:#777776"/>
		<stop  offset="0.1706" style="stop-color:#FFFFFF"/>
		<stop  offset="0.5139" style="stop-color:#777776"/>
		<stop  offset="0.5736" style="stop-color:#7B7B7A"/>
		<stop  offset="0.633" style="stop-color:#878786"/>
		<stop  offset="0.6922" style="stop-color:#9B9B9A"/>
		<stop  offset="0.7515" style="stop-color:#B6B6B6"/>
		<stop  offset="0.8101" style="stop-color:#DADADA"/>
		<stop  offset="0.8611" style="stop-color:#FFFFFF"/>
		<stop  offset="1" style="stop-color:#777776"/>
	</linearGradient>
	<polygon clip-path="url(#SVGID_2_)" fill="url(#SVGID_3_)" points="86.8,11.9 99.5,13.2 97.7,31.4 84.9,30.1 	"/>
</g>
<g>
	<defs>
		<path id="SVGID_4_" d="M102.9,23.3c-0.4-0.5-0.7-1.1-0.7-2c0-0.7,0.1-1.2,0.4-1.6c0.3-0.4,0.7-0.7,1.1-1c0.5-0.2,1-0.4,1.6-0.4
			c0.6-0.1,1.1-0.1,1.7-0.1c0.1,0,0.1,0,0.1,0.1c0,0,0.1,0.1,0.1,0.1v3.1c0,0.3,0,0.6,0,0.9c0,0,0,0.1,0,0.1
			c-0.1,0.2-0.2,0.3-0.3,0.5c-0.2,0.2-0.3,0.3-0.6,0.5c-0.2,0.2-0.5,0.3-0.8,0.4c-0.3,0.1-0.6,0.1-1,0.1
			C104,24,103.4,23.7,102.9,23.3 M104.2,13.1c-0.3,0-0.5,0.1-0.7,0.1c-0.2,0-0.5,0.1-0.7,0.2c-0.2,0.1-0.5,0.2-0.7,0.3l0,1.3
			c0,0,0.1,0,0.3,0c0.3-0.4,0.7-0.6,1-0.7c0.3-0.1,0.5-0.2,0.8-0.2c0.3,0,0.5-0.1,0.8-0.1c0.4,0,0.8,0.1,1.1,0.2
			c0.3,0.1,0.6,0.3,0.8,0.5c0.2,0.2,0.4,0.5,0.5,0.9c0.1,0.4,0.2,0.8,0.2,1.3v0.4c0,0.1-0.1,0.2-0.2,0.2c-0.4,0-0.8,0-1.3,0.1
			c-0.5,0-1.1,0.1-1.6,0.2c-0.5,0.1-1.1,0.3-1.6,0.4c-0.5,0.2-1,0.4-1.4,0.7s-0.7,0.7-1,1.1c-0.2,0.4-0.4,0.9-0.4,1.5
			c0,1.1,0.4,2,1.1,2.6c0.7,0.6,1.7,0.9,3,0.9c0.4,0,0.8,0,1.1-0.1c0.3-0.1,0.6-0.2,0.9-0.3c0.3-0.1,0.5-0.2,0.7-0.4
			c0.1,0,0.1-0.1,0.2-0.1c0.1,0,0.1-0.1,0.2,0c0.1,0,0.1,0.1,0.1,0.2l0,0.1c0,0.1,0,0.3-0.1,0.4l0,0.1h2.4l0-0.1
			c0-0.1-0.1-0.3-0.1-0.6c0-0.2-0.1-0.5-0.1-0.9c0-0.3,0-0.7-0.1-1.2c0-0.5,0-1,0-1.6v-3.6c0-0.5-0.1-1-0.2-1.4
			c-0.2-0.4-0.4-0.8-0.8-1.2c-0.3-0.3-0.8-0.6-1.4-0.8c-0.5-0.2-1.2-0.3-2-0.3C104.7,13,104.4,13.1,104.2,13.1"/>
	</defs>
	<clipPath id="SVGID_5_">
		<use xlink:href="#SVGID_4_"  overflow="visible"/>
	</clipPath>
	
		<linearGradient id="SVGID_6_" gradientUnits="userSpaceOnUse" x1="0" y1="39.0363" x2="1" y2="39.0363" gradientTransform="matrix(146.3437 14.8465 14.8465 -146.3437 -543.0074 5724.7256)">
		<stop  offset="0" style="stop-color:#777776"/>
		<stop  offset="1.984130e-003" style="stop-color:#777776"/>
		<stop  offset="0.1706" style="stop-color:#FFFFFF"/>
		<stop  offset="0.5139" style="stop-color:#777776"/>
		<stop  offset="0.5736" style="stop-color:#7B7B7A"/>
		<stop  offset="0.633" style="stop-color:#878786"/>
		<stop  offset="0.6922" style="stop-color:#9B9B9A"/>
		<stop  offset="0.7515" style="stop-color:#B6B6B6"/>
		<stop  offset="0.8101" style="stop-color:#DADADA"/>
		<stop  offset="0.8611" style="stop-color:#FFFFFF"/>
		<stop  offset="1" style="stop-color:#777776"/>
	</linearGradient>
	<polygon clip-path="url(#SVGID_5_)" fill="url(#SVGID_6_)" points="100.2,12.1 110.9,13.2 109.6,25.8 98.9,24.7 	"/>
</g>
<g>
	<defs>
		<path id="SVGID_7_" d="M163.9,14.6c-0.1,0.1-0.1,0.1-0.2,0c-0.1,0-0.1-0.1-0.1-0.2c0-0.3,0.1-0.5,0.1-0.7c0-0.1,0.1-0.3,0.1-0.4
			h-2.5c0.5,3.6,0.5,7.8,0,11.4h2.5c-0.3-2.2-0.3-4.9-0.3-7.3c0-0.5,0-0.9,0-1.4c0-0.1,0-0.1,0.1-0.1c0.8-0.7,2.1-1.5,3.3-1.3
			c0.6,0.1,1,0.3,1.4,0.8l0.2,0l0.3-2.2l0,0c-0.2-0.1-0.4-0.1-0.6-0.1c-0.2,0-0.3,0-0.5,0C166.4,13,165.1,13.6,163.9,14.6"/>
	</defs>
	<clipPath id="SVGID_8_">
		<use xlink:href="#SVGID_7_"  overflow="visible"/>
	</clipPath>
	
		<linearGradient id="SVGID_9_" gradientUnits="userSpaceOnUse" x1="0" y1="39.0364" x2="1" y2="39.0364" gradientTransform="matrix(146.3437 14.8465 14.8465 -146.3437 -542.3854 5718.5938)">
		<stop  offset="0" style="stop-color:#777776"/>
		<stop  offset="1.984130e-003" style="stop-color:#777776"/>
		<stop  offset="0.1706" style="stop-color:#FFFFFF"/>
		<stop  offset="0.5139" style="stop-color:#777776"/>
		<stop  offset="0.5736" style="stop-color:#7B7B7A"/>
		<stop  offset="0.633" style="stop-color:#878786"/>
		<stop  offset="0.6922" style="stop-color:#9B9B9A"/>
		<stop  offset="0.7515" style="stop-color:#B6B6B6"/>
		<stop  offset="0.8101" style="stop-color:#DADADA"/>
		<stop  offset="0.8611" style="stop-color:#FFFFFF"/>
		<stop  offset="1" style="stop-color:#777776"/>
	</linearGradient>
	<polygon clip-path="url(#SVGID_8_)" fill="url(#SVGID_9_)" points="161.4,12.3 169.9,13.1 168.6,25.4 160.1,24.5 	"/>
</g>
<g>
	<defs>
		<path id="SVGID_10_" d="M137.8,24c-0.3,0-0.6-0.1-0.8-0.2c-0.2-0.1-0.4-0.2-0.6-0.3c-0.1-0.1-0.3-0.2-0.4-0.2
			c-0.1,0-0.1-0.1-0.1-0.2v-5.7c0-0.4,0-0.8,0-1.2c0-0.3,0-0.6,0-0.9c0,0,0-0.1,0-0.1c0.2-0.2,0.4-0.4,0.6-0.5
			c0.2-0.2,0.5-0.3,0.7-0.4c0.3-0.1,0.5-0.2,0.8-0.3c0.3-0.1,0.5-0.1,0.8-0.1c0.7,0,1.2,0.1,1.7,0.4c0.5,0.3,0.8,0.7,1.1,1.2
			c0.3,0.5,0.5,1.1,0.6,1.8c0.1,0.7,0.2,1.4,0.2,2.2c0,0.7-0.1,1.3-0.3,1.9c-0.2,0.6-0.4,1-0.7,1.4c-0.3,0.4-0.7,0.7-1.2,0.9
			c-0.5,0.2-1,0.3-1.6,0.3C138.4,24,138.1,24,137.8,24 M137.4,13.3c-0.4,0.1-0.8,0.3-1.1,0.5c-0.1,0-0.2,0-0.2,0
			c-0.1,0-0.1-0.1-0.1-0.2l0-0.1c0-0.1,0.1-0.2,0.1-0.3l0-0.1h-2.6l0,0.1c0,0.1,0.1,0.3,0.1,0.5c0,0.2,0.1,0.5,0.1,0.9
			c0,0.3,0,0.7,0.1,1.2c0,0.5,0,1,0,1.6V26c0,0.6,0,1.2,0,1.6c0,0.5,0,0.9-0.1,1.2c0,0.3-0.1,0.6-0.1,0.9c0,0.2-0.1,0.4-0.1,0.6
			l0,0.1h2.6l0-0.1c0-0.1-0.1-0.3-0.1-0.6c0-0.2-0.1-0.5-0.1-0.9c0-0.3-0.1-0.8-0.1-1.2c0-0.5,0-1,0-1.6v-1.3c0-0.1,0-0.1,0.1-0.2
			s0.1,0,0.2,0c0.3,0.1,0.7,0.2,1.1,0.3c0.5,0.1,1,0.1,1.6,0.1c1,0,1.8-0.2,2.6-0.5c0.7-0.3,1.4-0.8,1.9-1.3
			c0.5-0.5,0.9-1.2,1.2-1.9c0.3-0.7,0.4-1.4,0.4-2.2c0-0.9-0.1-1.7-0.4-2.5c-0.3-0.7-0.6-1.4-1.1-1.9c-0.5-0.5-1.1-0.9-1.7-1.2
			c-0.7-0.3-1.4-0.4-2.2-0.4C138.6,13,138,13.1,137.4,13.3"/>
	</defs>
	<clipPath id="SVGID_11_">
		<use xlink:href="#SVGID_10_"  overflow="visible"/>
	</clipPath>
	
		<linearGradient id="SVGID_12_" gradientUnits="userSpaceOnUse" x1="0" y1="39.0379" x2="1" y2="39.0379" gradientTransform="matrix(146.3437 14.8465 14.8465 -146.3437 -542.9568 5724.2266)">
		<stop  offset="0" style="stop-color:#777776"/>
		<stop  offset="1.984130e-003" style="stop-color:#777776"/>
		<stop  offset="0.1706" style="stop-color:#FFFFFF"/>
		<stop  offset="0.5139" style="stop-color:#777776"/>
		<stop  offset="0.5736" style="stop-color:#7B7B7A"/>
		<stop  offset="0.633" style="stop-color:#878786"/>
		<stop  offset="0.6922" style="stop-color:#9B9B9A"/>
		<stop  offset="0.7515" style="stop-color:#B6B6B6"/>
		<stop  offset="0.8101" style="stop-color:#DADADA"/>
		<stop  offset="0.8611" style="stop-color:#FFFFFF"/>
		<stop  offset="1" style="stop-color:#777776"/>
	</linearGradient>
	<polygon clip-path="url(#SVGID_11_)" fill="url(#SVGID_12_)" points="133.7,11.9 146.4,13.2 144.6,31.4 131.9,30.1 	"/>
</g>
<g>
	<defs>
		<path id="SVGID_13_" d="M151.4,23.6c-0.5-0.3-0.9-0.7-1.3-1.2c-0.3-0.5-0.6-1.1-0.8-1.8s-0.3-1.4-0.3-2.2c0-0.7,0.1-1.3,0.3-1.9
			c0.2-0.6,0.4-1,0.7-1.4c0.3-0.4,0.7-0.7,1.1-0.9c0.4-0.2,0.9-0.3,1.4-0.3c0.7,0,1.3,0.1,1.8,0.4c0.5,0.3,0.9,0.7,1.3,1.2
			c0.3,0.5,0.6,1.1,0.8,1.8c0.2,0.7,0.3,1.4,0.3,2.2c0,0.7-0.1,1.4-0.3,1.9c-0.2,0.6-0.4,1-0.7,1.4c-0.3,0.4-0.7,0.7-1.1,0.9
			c-0.4,0.2-0.9,0.3-1.4,0.3C152.5,24,151.9,23.9,151.4,23.6 M150.5,13.5c-0.7,0.3-1.4,0.7-1.9,1.2c-0.5,0.5-1,1.1-1.3,1.9
			c-0.3,0.7-0.5,1.5-0.5,2.3c0,0.9,0.2,1.7,0.5,2.5c0.3,0.7,0.8,1.4,1.3,1.9c0.5,0.5,1.2,0.9,1.9,1.2c0.7,0.3,1.5,0.4,2.3,0.4
			c1,0,1.8-0.2,2.6-0.5c0.7-0.3,1.4-0.8,1.9-1.3c0.5-0.5,0.9-1.2,1.2-1.9c0.3-0.7,0.4-1.4,0.4-2.2c0-0.9-0.2-1.7-0.5-2.5
			c-0.3-0.7-0.7-1.4-1.3-1.9c-0.5-0.5-1.2-0.9-1.9-1.2c-0.7-0.3-1.5-0.4-2.4-0.4C152.1,13.1,151.2,13.2,150.5,13.5"/>
	</defs>
	<clipPath id="SVGID_14_">
		<use xlink:href="#SVGID_13_"  overflow="visible"/>
	</clipPath>
	
		<linearGradient id="SVGID_15_" gradientUnits="userSpaceOnUse" x1="0" y1="39.0361" x2="1" y2="39.0361" gradientTransform="matrix(146.3437 14.8465 14.8465 -146.3437 -542.5164 5719.8857)">
		<stop  offset="0" style="stop-color:#777776"/>
		<stop  offset="1.984130e-003" style="stop-color:#777776"/>
		<stop  offset="0.1706" style="stop-color:#FFFFFF"/>
		<stop  offset="0.5139" style="stop-color:#777776"/>
		<stop  offset="0.5736" style="stop-color:#7B7B7A"/>
		<stop  offset="0.633" style="stop-color:#878786"/>
		<stop  offset="0.6922" style="stop-color:#9B9B9A"/>
		<stop  offset="0.7515" style="stop-color:#B6B6B6"/>
		<stop  offset="0.8101" style="stop-color:#DADADA"/>
		<stop  offset="0.8611" style="stop-color:#FFFFFF"/>
		<stop  offset="1" style="stop-color:#777776"/>
	</linearGradient>
	<polygon clip-path="url(#SVGID_14_)" fill="url(#SVGID_15_)" points="147,11.9 160.1,13.2 158.8,26.1 145.7,24.7 	"/>
</g>
<g>
	<defs>
		<path id="SVGID_16_" d="M125.9,13.2c-0.8,0.3-1.5,0.8-1.8,1.4c-0.5,0.9-0.4,1.8,0,2.8c0.4,0.8,1.3,1.4,2.1,1.9
			c0.2,0.1,0.4,0.3,0.6,0.4l0.2,0.1c1,0.7,2.1,1.4,1.9,2.6c-0.1,0.6-0.4,1-0.9,1.3c-0.6,0.4-1.5,0.4-2.2,0.1
			c-0.9-0.3-1.6-1.1-1.9-2.2h-0.2l-0.1,2.1h0c0.9,0.6,2.3,1,3.6,1c0.9,0,1.7-0.2,2.3-0.5c1-0.5,1.6-1.4,1.6-2.5
			c0.1-1.9-1.3-2.6-2.6-3.4c-0.6-0.3-1.1-0.6-1.5-1c-1-0.8-1.5-1.6-1.3-2.4c0.2-0.7,1-1.2,2-1.3c1.2-0.1,2.2,0.5,2.7,1.6l0.2,0
			l-0.1-1.8c-0.9-0.5-1.9-0.7-2.9-0.7C126.9,13,126.4,13,125.9,13.2"/>
	</defs>
	<clipPath id="SVGID_17_">
		<use xlink:href="#SVGID_16_"  overflow="visible"/>
	</clipPath>
	
		<linearGradient id="SVGID_18_" gradientUnits="userSpaceOnUse" x1="0" y1="39.0362" x2="1" y2="39.0362" gradientTransform="matrix(146.3437 14.8465 14.8465 -146.3437 -542.775 5722.4346)">
		<stop  offset="0" style="stop-color:#777776"/>
		<stop  offset="1.984130e-003" style="stop-color:#777776"/>
		<stop  offset="0.1706" style="stop-color:#FFFFFF"/>
		<stop  offset="0.5139" style="stop-color:#777776"/>
		<stop  offset="0.5736" style="stop-color:#7B7B7A"/>
		<stop  offset="0.633" style="stop-color:#878786"/>
		<stop  offset="0.6922" style="stop-color:#9B9B9A"/>
		<stop  offset="0.7515" style="stop-color:#B6B6B6"/>
		<stop  offset="0.8101" style="stop-color:#DADADA"/>
		<stop  offset="0.8611" style="stop-color:#FFFFFF"/>
		<stop  offset="1" style="stop-color:#777776"/>
	</linearGradient>
	<polygon clip-path="url(#SVGID_17_)" fill="url(#SVGID_18_)" points="123.6,12.2 132.3,13.1 131.1,25.7 122.4,24.8 	"/>
</g>
<g>
	<defs>
		<path id="SVGID_19_" d="M115.5,13.2c-0.8,0.3-1.5,0.8-1.8,1.4c-0.5,0.9-0.5,1.8,0,2.8c0.4,0.8,1.3,1.4,2.1,1.9
			c0.2,0.1,0.4,0.3,0.6,0.4l0.2,0.1c1,0.7,2.1,1.4,1.9,2.6c-0.1,0.6-0.4,1-0.9,1.3c-0.6,0.4-1.5,0.4-2.2,0.1
			c-0.9-0.3-1.6-1.1-1.9-2.2h-0.2l-0.1,2.1h0c0.9,0.6,2.3,1,3.6,1c0.9,0,1.7-0.2,2.3-0.5c1-0.5,1.6-1.4,1.6-2.5
			c0.1-1.9-1.3-2.6-2.6-3.4c-0.6-0.3-1.1-0.6-1.5-1c-1-0.8-1.5-1.6-1.3-2.4c0.2-0.7,1-1.2,2-1.3c1.2-0.1,2.2,0.5,2.7,1.6l0.2,0
			l-0.1-1.8C119,13.2,118,13,117,13C116.4,13,115.9,13,115.5,13.2"/>
	</defs>
	<clipPath id="SVGID_20_">
		<use xlink:href="#SVGID_19_"  overflow="visible"/>
	</clipPath>
	
		<linearGradient id="SVGID_21_" gradientUnits="userSpaceOnUse" x1="0" y1="39.0362" x2="1" y2="39.0362" gradientTransform="matrix(146.3437 14.8465 14.8465 -146.3437 -542.8816 5723.4854)">
		<stop  offset="0" style="stop-color:#777776"/>
		<stop  offset="1.984130e-003" style="stop-color:#777776"/>
		<stop  offset="0.1706" style="stop-color:#FFFFFF"/>
		<stop  offset="0.5139" style="stop-color:#777776"/>
		<stop  offset="0.5736" style="stop-color:#7B7B7A"/>
		<stop  offset="0.633" style="stop-color:#878786"/>
		<stop  offset="0.6922" style="stop-color:#9B9B9A"/>
		<stop  offset="0.7515" style="stop-color:#B6B6B6"/>
		<stop  offset="0.8101" style="stop-color:#DADADA"/>
		<stop  offset="0.8611" style="stop-color:#FFFFFF"/>
		<stop  offset="1" style="stop-color:#777776"/>
	</linearGradient>
	<polygon clip-path="url(#SVGID_20_)" fill="url(#SVGID_21_)" points="113.2,12.2 121.9,13.1 120.6,25.7 111.9,24.8 	"/>
</g>
<g>
	<defs>
		<path id="SVGID_22_" d="M61.3,13.3L61.3,13.3c0,0.1,0,0.1,0,0.2c0,0.1,0,0.1,0,0.2c0,0.3-0.1,0.7-0.2,1c-0.1,0.3-0.2,0.6-0.4,0.9
			l-2.5,5.8c0,0.1-0.1,0.1-0.2,0.1h0c-0.1,0-0.2,0-0.2-0.1l-2.5-5.9c-0.2-0.4-0.3-0.8-0.4-1c-0.1-0.3-0.1-0.5-0.1-0.8
			c0-0.1,0-0.1,0-0.2c0-0.1,0-0.1,0-0.1l0-0.1h-3.2v0c0,0,0.1,0.1,0.2,0.3c0.1,0.2,0.2,0.4,0.4,0.6c0.1,0.2,0.3,0.5,0.4,0.8
			c0.2,0.3,0.3,0.6,0.4,0.9l3.8,8.8H58l4.1-9.4c0.2-0.5,0.4-1,0.6-1.3c0.2-0.4,0.4-0.6,0.5-0.7v0H61.3z"/>
	</defs>
	<clipPath id="SVGID_23_">
		<use xlink:href="#SVGID_22_"  overflow="visible"/>
	</clipPath>
	
		<linearGradient id="SVGID_24_" gradientUnits="userSpaceOnUse" x1="0" y1="39.0343" x2="1" y2="39.0343" gradientTransform="matrix(146.3437 14.8465 14.8465 -146.3437 -543.4686 5729.271)">
		<stop  offset="0" style="stop-color:#777776"/>
		<stop  offset="1.984130e-003" style="stop-color:#777776"/>
		<stop  offset="0.1706" style="stop-color:#FFFFFF"/>
		<stop  offset="0.5139" style="stop-color:#777776"/>
		<stop  offset="0.5736" style="stop-color:#7B7B7A"/>
		<stop  offset="0.633" style="stop-color:#878786"/>
		<stop  offset="0.6922" style="stop-color:#9B9B9A"/>
		<stop  offset="0.7515" style="stop-color:#B6B6B6"/>
		<stop  offset="0.8101" style="stop-color:#DADADA"/>
		<stop  offset="0.8611" style="stop-color:#FFFFFF"/>
		<stop  offset="1" style="stop-color:#777776"/>
	</linearGradient>
	<polygon clip-path="url(#SVGID_23_)" fill="url(#SVGID_24_)" points="52,12.1 64.4,13.4 63.2,25.9 50.7,24.7 	"/>
</g>
<g>
	<defs>
		<path id="SVGID_25_" d="M69.4,23.6c-0.5-0.3-0.9-0.7-1.3-1.2c-0.3-0.5-0.6-1.1-0.8-1.8c-0.2-0.7-0.3-1.4-0.3-2.2
			c0-0.7,0.1-1.3,0.3-1.9c0.2-0.6,0.4-1,0.7-1.4c0.3-0.4,0.7-0.7,1.1-0.9c0.4-0.2,0.9-0.3,1.4-0.3c0.7,0,1.3,0.1,1.8,0.4
			c0.5,0.3,0.9,0.7,1.3,1.2c0.3,0.5,0.6,1.1,0.8,1.8c0.2,0.7,0.3,1.4,0.3,2.2c0,0.7-0.1,1.4-0.3,1.9s-0.4,1-0.7,1.4
			c-0.3,0.4-0.7,0.7-1.1,0.9c-0.4,0.2-0.9,0.3-1.4,0.3C70.5,24,69.9,23.9,69.4,23.6 M68.5,13.5c-0.7,0.3-1.4,0.7-1.9,1.2
			c-0.5,0.5-1,1.1-1.3,1.9c-0.3,0.7-0.5,1.5-0.5,2.3c0,0.9,0.2,1.7,0.5,2.5c0.3,0.7,0.8,1.4,1.3,1.9c0.5,0.5,1.2,0.9,1.9,1.2
			c0.7,0.3,1.5,0.4,2.3,0.4c1,0,1.8-0.2,2.6-0.5c0.7-0.3,1.4-0.8,1.9-1.3c0.5-0.5,0.9-1.2,1.2-1.9c0.3-0.7,0.4-1.4,0.4-2.2
			c0-0.9-0.2-1.7-0.5-2.5c-0.3-0.7-0.7-1.4-1.3-1.9c-0.5-0.5-1.2-0.9-1.9-1.2c-0.7-0.3-1.5-0.4-2.4-0.4
			C70.1,13.1,69.3,13.2,68.5,13.5"/>
	</defs>
	<clipPath id="SVGID_26_">
		<use xlink:href="#SVGID_25_"  overflow="visible"/>
	</clipPath>
	
		<linearGradient id="SVGID_27_" gradientUnits="userSpaceOnUse" x1="0" y1="39.0361" x2="1" y2="39.0361" gradientTransform="matrix(146.3437 14.8465 14.8465 -146.3437 -543.3516 5728.1177)">
		<stop  offset="0" style="stop-color:#777776"/>
		<stop  offset="1.984130e-003" style="stop-color:#777776"/>
		<stop  offset="0.1706" style="stop-color:#FFFFFF"/>
		<stop  offset="0.5139" style="stop-color:#777776"/>
		<stop  offset="0.5736" style="stop-color:#7B7B7A"/>
		<stop  offset="0.633" style="stop-color:#878786"/>
		<stop  offset="0.6922" style="stop-color:#9B9B9A"/>
		<stop  offset="0.7515" style="stop-color:#B6B6B6"/>
		<stop  offset="0.8101" style="stop-color:#DADADA"/>
		<stop  offset="0.8611" style="stop-color:#FFFFFF"/>
		<stop  offset="1" style="stop-color:#777776"/>
	</linearGradient>
	<polygon clip-path="url(#SVGID_26_)" fill="url(#SVGID_27_)" points="65,11.9 78.2,13.2 76.8,26.1 63.7,24.7 	"/>
</g>
<g>
	<defs>
		<path id="SVGID_28_" d="M81.1,8.8C81,8.9,80.9,9,80.8,9.1c-0.1,0.1-0.2,0.2-0.2,0.4c-0.1,0.1-0.1,0.3-0.1,0.5c0,0.2,0,0.3,0.1,0.5
			c0.1,0.1,0.1,0.3,0.2,0.4c0.1,0.1,0.2,0.2,0.4,0.3c0.1,0.1,0.3,0.1,0.5,0.1c0.3,0,0.6-0.1,0.9-0.3c0.2-0.2,0.3-0.5,0.3-0.9
			c0-0.2,0-0.3-0.1-0.5c-0.1-0.1-0.1-0.3-0.3-0.4c-0.1-0.1-0.2-0.2-0.4-0.3c-0.1-0.1-0.3-0.1-0.5-0.1C81.5,8.7,81.3,8.7,81.1,8.8"/>
	</defs>
	<clipPath id="SVGID_29_">
		<use xlink:href="#SVGID_28_"  overflow="visible"/>
	</clipPath>
	
		<linearGradient id="SVGID_30_" gradientUnits="userSpaceOnUse" x1="0" y1="39.0361" x2="1" y2="39.0361" gradientTransform="matrix(146.3437 14.8465 14.8465 -146.3437 -541.9381 5718.1343)">
		<stop  offset="0" style="stop-color:#777776"/>
		<stop  offset="1.984130e-003" style="stop-color:#777776"/>
		<stop  offset="0.1706" style="stop-color:#FFFFFF"/>
		<stop  offset="0.5139" style="stop-color:#777776"/>
		<stop  offset="0.5736" style="stop-color:#7B7B7A"/>
		<stop  offset="0.633" style="stop-color:#878786"/>
		<stop  offset="0.6922" style="stop-color:#9B9B9A"/>
		<stop  offset="0.7515" style="stop-color:#B6B6B6"/>
		<stop  offset="0.8101" style="stop-color:#DADADA"/>
		<stop  offset="0.8611" style="stop-color:#FFFFFF"/>
		<stop  offset="1" style="stop-color:#777776"/>
	</linearGradient>
	<polygon clip-path="url(#SVGID_29_)" fill="url(#SVGID_30_)" points="80.5,8.5 83.1,8.7 82.8,11.3 80.2,11.1 	"/>
</g>
<g>
	<defs>
		<path id="SVGID_31_" d="M44.4,9.5C44.4,9.5,44.5,9.5,44.4,9.5c0.2,1,0.3,2,0.3,3.1l0,0.5c0,0.1,0,0.1-0.1,0.1c0,0-0.1,0-0.1,0.1
			c-0.7,0-0.8,0-1.3,0v1l1.3-0.1h0c0.1,0,0.1,0,0.1,0.1c0,0,0.1,0.1,0.1,0.1v7.2c0,1.1,0.3,2,0.8,2.5c1,1,3.3,1,4.6,0.3l0.4-1.1
			l-0.1-0.1c-0.5,0.7-1.4,1.1-2.3,1c-0.7-0.1-1.2-0.5-1.4-1.2c-0.1-0.3-0.1-2.6-0.1-5.8c0-1.3,0-2.5,0-2.8c0-0.1,0-0.1,0.1-0.2
			c0,0,0.1-0.1,0.1-0.1h0c0.7,0,1.2,0,1.7,0c0.3,0,0.7,0,1.1,0l0.2-1.1c-0.9,0.1-1.5,0.1-2.3,0.2c-0.2,0-0.4,0-0.7,0
			c-0.1,0-0.1,0-0.1-0.1c0,0-0.1-0.1-0.1-0.1c0-0.2,0-0.4,0-0.6c0-1,0.1-1.9,0.3-2.9l0-0.1H44.4z"/>
	</defs>
	<clipPath id="SVGID_32_">
		<use xlink:href="#SVGID_31_"  overflow="visible"/>
	</clipPath>
	
		<linearGradient id="SVGID_33_" gradientUnits="userSpaceOnUse" x1="0" y1="39.035" x2="1" y2="39.035" gradientTransform="matrix(139.6097 14.1633 14.1633 -139.6097 -516.0539 5465.9263)">
		<stop  offset="0" style="stop-color:#777776"/>
		<stop  offset="1.984130e-003" style="stop-color:#777776"/>
		<stop  offset="0.1706" style="stop-color:#FFFFFF"/>
		<stop  offset="0.5139" style="stop-color:#777776"/>
		<stop  offset="0.5736" style="stop-color:#7B7B7A"/>
		<stop  offset="0.633" style="stop-color:#878786"/>
		<stop  offset="0.6922" style="stop-color:#9B9B9A"/>
		<stop  offset="0.7515" style="stop-color:#B6B6B6"/>
		<stop  offset="0.8101" style="stop-color:#DADADA"/>
		<stop  offset="0.8611" style="stop-color:#FFFFFF"/>
		<stop  offset="1" style="stop-color:#777776"/>
	</linearGradient>
	<polygon clip-path="url(#SVGID_32_)" fill="url(#SVGID_33_)" points="43.4,8.8 52.2,9.7 50.5,25.8 41.7,24.9 	"/>
</g>
<g>
	<defs>
		<path id="SVGID_34_" d="M172,9.5C172,9.5,172,9.5,172,9.5c0.2,1,0.3,2,0.3,3.1l0,0.5c0,0.1,0,0.1-0.1,0.1c0,0-0.1,0-0.1,0.1
			c-0.7,0-0.8,0-1.3,0v1l1.3-0.1h0c0.1,0,0.1,0,0.1,0.1c0,0,0.1,0.1,0.1,0.1v7.2c0,1.1,0.3,2,0.8,2.5c1,1,3.3,1,4.6,0.3l0.4-1.1
			l-0.1-0.1c-0.5,0.7-1.4,1.1-2.3,1c-0.7-0.1-1.2-0.5-1.4-1.2c-0.1-0.3-0.1-2.6-0.1-5.8c0-1.3,0-2.5,0-2.8c0-0.1,0-0.1,0.1-0.2
			c0,0,0.1-0.1,0.1-0.1h0c0.7,0,1.2,0,1.7,0c0.3,0,0.7,0,1.1,0l0.2-1.1c-0.9,0.1-1.5,0.1-2.3,0.2c-0.2,0-0.4,0-0.7,0
			c-0.1,0-0.1,0-0.1-0.1c0,0-0.1-0.1-0.1-0.1c0-0.2,0-0.4,0-0.6c0-1,0.1-1.9,0.3-2.9l0-0.1H172z"/>
	</defs>
	<clipPath id="SVGID_35_">
		<use xlink:href="#SVGID_34_"  overflow="visible"/>
	</clipPath>
	
		<linearGradient id="SVGID_36_" gradientUnits="userSpaceOnUse" x1="0" y1="39.035" x2="1" y2="39.035" gradientTransform="matrix(139.6097 14.1633 14.1633 -139.6097 -509.3228 5453.668)">
		<stop  offset="0" style="stop-color:#777776"/>
		<stop  offset="1.984130e-003" style="stop-color:#777776"/>
		<stop  offset="0.1706" style="stop-color:#FFFFFF"/>
		<stop  offset="0.5139" style="stop-color:#777776"/>
		<stop  offset="0.5736" style="stop-color:#7B7B7A"/>
		<stop  offset="0.633" style="stop-color:#878786"/>
		<stop  offset="0.6922" style="stop-color:#9B9B9A"/>
		<stop  offset="0.7515" style="stop-color:#B6B6B6"/>
		<stop  offset="0.8101" style="stop-color:#DADADA"/>
		<stop  offset="0.8611" style="stop-color:#FFFFFF"/>
		<stop  offset="1" style="stop-color:#777776"/>
	</linearGradient>
	<polygon clip-path="url(#SVGID_35_)" fill="url(#SVGID_36_)" points="170.9,8.8 179.7,9.7 178.1,25.8 169.3,24.9 	"/>
</g>
<g>
	<defs>
		<path id="SVGID_37_" d="M80.3,13.3L80.3,13.3c0,0.2,0.1,0.4,0.1,0.6c0,0.2,0.1,0.5,0.1,0.9c0,0.3,0,0.7,0.1,1.2c0,0.5,0,1,0,1.6
			v2.7c0,0.6,0,1.2,0,1.6c0,0.5,0,0.9-0.1,1.2c0,0.3-0.1,0.6-0.1,0.9c0,0.2-0.1,0.4-0.1,0.6l0,0.1h2.6l0-0.1c0-0.2-0.1-0.3-0.1-0.6
			c0-0.2-0.1-0.5-0.1-0.9c0-0.3-0.1-0.8-0.1-1.2c0-0.5,0-1,0-1.6v-2.7c0-0.6,0-1.2,0-1.6c0-0.5,0-0.9,0.1-1.2c0-0.3,0.1-0.6,0.1-0.9
			c0-0.2,0.1-0.4,0.1-0.6l0-0.1H80.3z"/>
	</defs>
	<clipPath id="SVGID_38_">
		<use xlink:href="#SVGID_37_"  overflow="visible"/>
	</clipPath>
	
		<linearGradient id="SVGID_39_" gradientUnits="userSpaceOnUse" x1="0" y1="39.0361" x2="1" y2="39.0361" gradientTransform="matrix(146.3437 14.8465 14.8465 -146.3437 -542.8459 5727.0825)">
		<stop  offset="0" style="stop-color:#777776"/>
		<stop  offset="1.984130e-003" style="stop-color:#777776"/>
		<stop  offset="0.1706" style="stop-color:#FFFFFF"/>
		<stop  offset="0.5139" style="stop-color:#777776"/>
		<stop  offset="0.5736" style="stop-color:#7B7B7A"/>
		<stop  offset="0.633" style="stop-color:#878786"/>
		<stop  offset="0.6922" style="stop-color:#9B9B9A"/>
		<stop  offset="0.7515" style="stop-color:#B6B6B6"/>
		<stop  offset="0.8101" style="stop-color:#DADADA"/>
		<stop  offset="0.8611" style="stop-color:#FFFFFF"/>
		<stop  offset="1" style="stop-color:#777776"/>
	</linearGradient>
	<polygon clip-path="url(#SVGID_38_)" fill="url(#SVGID_39_)" points="80.4,13 84,13.4 82.9,24.9 79.2,24.5 	"/>
</g>
<g>
	<defs>
		<path id="SVGID_40_" d="M15.9,5.4H5.3v22c0,0-0.4,3.1,2.3,4l8.3,3.2l8.3-3.2c2.7-0.9,2.3-4,2.3-4v-22H15.9z"/>
	</defs>
	<clipPath id="SVGID_41_">
		<use xlink:href="#SVGID_40_"  overflow="visible"/>
	</clipPath>
	
		<linearGradient id="SVGID_42_" gradientUnits="userSpaceOnUse" x1="0" y1="39.0746" x2="1" y2="39.0746" gradientTransform="matrix(-22.2761 32.3362 32.3362 22.2761 -1235.3987 -868.254)">
		<stop  offset="0" style="stop-color:#FDC82E"/>
		<stop  offset="1" style="stop-color:#E14612"/>
	</linearGradient>
	<polygon clip-path="url(#SVGID_41_)" fill="url(#SVGID_42_)" points="40.5,14.7 19.8,44.7 -8.7,25.1 12,-4.9 	"/>
</g>
<g>
	<defs>
		<path id="SVGID_43_" d="M15.7,9.3c0,0-2.4,0-2.5,1.2c0,0,0,0.4,0.5,0.7c0,0,0.3-0.5,0.9-0.2c0,0,0.4,0.3,0.1,1.1l-0.4,1.7
			c-0.1,0-0.2,0.1-0.3,0.1c-0.3,0.1-1,0.6-1.6-0.7c0,0,0.5-1.3-0.8-2.2c0,0-1.6-0.8-2.8,0.4c0,0-0.7,0.7-0.7,3.4v10.9
			c0,0,2.4-0.5,3.8-3.4l0.4,0c0.1,0.1,0.2,0.2,0.4,0.2l1.8,0.7c-0.3,0.9-0.9,2.5-2.3,3.6c0,0,0.7,2,3.7,3.2c3-1.1,3.7-3.2,3.7-3.2
			c-1.5-1.1-2.1-2.7-2.4-3.6l1.8-0.7c0.2-0.1,0.3-0.1,0.4-0.2l0.5,0c1.4,3,3.8,3.4,3.8,3.4V14.9c0-2.8-0.7-3.4-0.7-3.4
			c-1.3-1.3-2.8-0.4-2.8-0.4c-1.3,0.8-0.8,2.2-0.8,2.2c-0.6,1.3-1.2,0.8-1.6,0.7c0,0,0,0-0.1,0l-0.3-2.9c0,0,0-1.6-1.6-1.6
			C15.8,9.3,15.7,9.3,15.7,9.3"/>
	</defs>
	<clipPath id="SVGID_44_">
		<use xlink:href="#SVGID_43_"  overflow="visible"/>
	</clipPath>
	
		<linearGradient id="SVGID_45_" gradientUnits="userSpaceOnUse" x1="0" y1="39.0284" x2="1" y2="39.0284" gradientTransform="matrix(75.1613 -51.4056 -51.4056 -75.1613 1982.2759 2980.436)">
		<stop  offset="0" style="stop-color:#5B82C1"/>
		<stop  offset="3.449641e-002" style="stop-color:#5273B2"/>
		<stop  offset="9.181145e-002" style="stop-color:#4862A1"/>
		<stop  offset="0.1614" style="stop-color:#415694"/>
		<stop  offset="0.2553" style="stop-color:#3D4F8D"/>
		<stop  offset="0.4777" style="stop-color:#3C4D8B"/>
		<stop  offset="0.8575" style="stop-color:#5B82C1"/>
		<stop  offset="1" style="stop-color:#5B82C1"/>
	</linearGradient>
	<polygon clip-path="url(#SVGID_44_)" fill="url(#SVGID_45_)" points="-1.5,16 18.7,2.1 33.3,23.5 13.1,37.3 	"/>
</g>
<g>
	<defs>
		<path id="SVGID_46_" d="M1.1,1.1h29.6v36.8H1.1V1.1z M0,39h31.8V0H0V39z"/>
	</defs>
	<clipPath id="SVGID_47_">
		<use xlink:href="#SVGID_46_"  overflow="visible"/>
	</clipPath>
	
		<linearGradient id="SVGID_48_" gradientUnits="userSpaceOnUse" x1="-8.013376e-008" y1="39.0361" x2="1" y2="39.0361" gradientTransform="matrix(40.7601 -23.5329 -23.5329 -40.7601 914.1564 1622.4015)">
		<stop  offset="0" style="stop-color:#777776"/>
		<stop  offset="1.984130e-003" style="stop-color:#777776"/>
		<stop  offset="0.1706" style="stop-color:#FFFFFF"/>
		<stop  offset="0.5139" style="stop-color:#777776"/>
		<stop  offset="0.5736" style="stop-color:#7B7B7A"/>
		<stop  offset="0.633" style="stop-color:#878786"/>
		<stop  offset="0.6922" style="stop-color:#9B9B9A"/>
		<stop  offset="0.7515" style="stop-color:#B6B6B6"/>
		<stop  offset="0.8101" style="stop-color:#DADADA"/>
		<stop  offset="0.8611" style="stop-color:#FFFFFF"/>
		<stop  offset="1" style="stop-color:#777776"/>
	</linearGradient>
	<polygon clip-path="url(#SVGID_47_)" fill="url(#SVGID_48_)" points="-16.9,9.8 23.9,-13.8 48.7,29.3 8,52.8 	"/>
</g>
<g>
	<defs>
		<path id="SVGID_49_" d="M7.8,30.7c-2.2-0.7-1.9-3.3-1.9-3.4l0,0V5.9h20v21.4l0,0.1c0,0.1,0.3,2.6-1.9,3.4l-8.1,3.1L7.8,30.7z
			 M4.8,4.8v22.5C4.6,28.5,5,31,7.4,31.8l8.5,3.3l8.5-3.3c2.5-0.8,2.8-3.3,2.7-4.5V4.8H4.8z"/>
	</defs>
	<clipPath id="SVGID_50_">
		<use xlink:href="#SVGID_49_"  overflow="visible"/>
	</clipPath>
	
		<linearGradient id="SVGID_51_" gradientUnits="userSpaceOnUse" x1="0" y1="38.9712" x2="1" y2="38.9712" gradientTransform="matrix(27.2084 -15.7088 -15.7088 -27.2084 615.7742 1087.3915)">
		<stop  offset="0" style="stop-color:#777776"/>
		<stop  offset="1.984130e-003" style="stop-color:#777776"/>
		<stop  offset="0.1706" style="stop-color:#FFFFFF"/>
		<stop  offset="0.5139" style="stop-color:#777776"/>
		<stop  offset="0.5736" style="stop-color:#7B7B7A"/>
		<stop  offset="0.633" style="stop-color:#878786"/>
		<stop  offset="0.6922" style="stop-color:#9B9B9A"/>
		<stop  offset="0.7515" style="stop-color:#B6B6B6"/>
		<stop  offset="0.8101" style="stop-color:#DADADA"/>
		<stop  offset="0.8611" style="stop-color:#FFFFFF"/>
		<stop  offset="1" style="stop-color:#777776"/>
	</linearGradient>
	<polygon clip-path="url(#SVGID_50_)" fill="url(#SVGID_51_)" points="-8.5,12.4 21.5,-5 40.3,27.5 10.3,44.8 	"/>
</g>
</svg>
